<svg width="140" height="50" data-t-c="Main Menu" data-t-a="click" data-t-l="Logo" data-t4-eventname="menu"
  data-t4-type="main" data-t4-label="logo" class="w-auto block" xmlns="http://www.w3.org/2000/svg"
  viewBox="0 0 425.93 141.73">
  <path
    d="M310.1,64.67h-2.68v-21h2.68ZM176,118.38l7.11,21h-2.83l-2-6.41h-7.66l-2,6.41h-2.73l7.12-21Zm.61,9.28c-.76-2.35-1.43-4.66-2.11-7.09h-.12c-.66,2.44-1.33,4.74-2.09,7.09l-1,3.21h6.33Zm4.5-34.23c0,5-2.2,6.64-5,6.64s-4.88-1.59-4.88-6.64V81h-2.68V93.36c0,6.75,3.27,9.07,7.56,9.07s7.55-2.32,7.55-9.07V81h-2.56ZM294.15,64.67h2.68V45.91h6.36V43.64h-15.4v2.27h6.36ZM305.86,102V83.27h6.37V81H296.82v2.26h6.37V102ZM228.81,62.41H219V54.76h8V52.5h-8V45.91h9.45V43.64H216.37v21h12.44Zm111.81-8.74c0-2.2-.21-4.45-.34-6.57h.13l2.27,4.34,7.61,13.23h2.76v-21h-2.54V54.53c0,2.2.2,4.57.34,6.69h-.13l-2.27-4.36-7.61-13.22h-2.77v21h2.55Zm-140.33,70.9c0,4.43-3.16,6.5-7.77,6.5h-3.45v8.34h-2.68v-21h6C197.11,118.38,200.29,120,200.29,124.57Zm-2.67,0c0-3-1.87-4-5.56-4h-3v8.34h3.11C195.86,128.89,197.62,127.56,197.62,124.57Zm4.56-32.68c0,2.2.21,4.57.35,6.7h-.13l-2.27-4.36L192.51,81h-2.76v21h2.54V91c0-2.2-.2-4.44-.34-6.57h.13l2.27,4.35L202,102h2.77V81h-2.55ZM388.91,62.41h-9.18V43.64h-2.68v21h11.86ZM225.37,99.33h-.13c-.78-2.47-1.29-4.48-2-7L219.82,81H217l6.72,21h3.1l6.68-21h-2.73l-3.37,11.37C226.67,94.85,226.15,96.86,225.37,99.33ZM255,53.67c0-2.2-.2-4.45-.34-6.57h.13L257,51.44l7.61,13.23h2.77v-21h-2.54V54.53c0,2.2.2,4.57.34,6.69h-.13l-2.27-4.36L255.2,43.64h-2.77v21H255ZM211,102h2.68V81H211ZM203.1,64.67h2.67V45.91h6.37V43.64H196.73v2.27h6.37Zm-23-11c0-2.2-.21-4.45-.34-6.57h.13l2.27,4.34,7.61,13.23h2.76v-21H190V54.53c0,2.2.2,4.57.34,6.69h-.13l-2.27-4.36-7.61-13.22h-2.77v21h2.55ZM16.42,0C6.9,0,0,6.13,0,14.83S6.9,29.66,16.42,29.66s16.42-6.2,16.42-14.83S25.94,0,16.42,0ZM218.9,124.57c0,4.43-3.17,6.5-7.77,6.5h-3.46v8.34H205v-21h6C215.72,118.38,218.9,120,218.9,124.57Zm-2.67,0c0-3-1.87-4-5.57-4h-3v8.34h3.12C214.47,128.89,216.23,127.56,216.23,124.57ZM2.2,139.42H30.57V43.66H2.2ZM171.29,43.64h-2.68v21h2.68ZM111.84,107c-5.54,7.54-9.9,10.53-17,10.53-8.19,0-11.9-4.31-11.9-18.09V43.66H54.56v59.45c0,23.93,8.87,38.62,29.7,38.62,13,0,22.06-6.06,30.06-15.6h.7l2,13.29h23.15V43.66H111.84ZM355,91.45c0,6.73-3.71,11-9,11s-9-4.25-9-11,3.7-10.83,9-10.83S355,84.73,355,91.45Zm-2.77,0c0-5.24-2.47-8.47-6.22-8.47s-6.23,3.23-6.23,8.47,2.47,8.62,6.23,8.62S352.26,96.69,352.26,91.45ZM340.91,129.5h8v-2.27h-8v-6.59h9.45v-2.26H338.24v21h12.44v-2.27h-9.77Zm27.12-.24c0,2.2.21,4.57.34,6.69h-.13L366,131.6l-7.61-13.22H355.6v21h2.54v-11c0-2.2-.21-4.44-.34-6.57h.13l2.27,4.35,7.61,13.23h2.76v-21H368ZM226.28,118.38H223.6v21h11.86v-2.27h-9.18Zm103,21H332v-21h-2.68Zm37.29-95.77,7.12,21H370.9l-2-6.4h-7.66l-2,6.4h-2.72l7.11-21Zm.62,9.29c-.76-2.35-1.43-4.66-2.11-7.09H365c-.65,2.44-1.32,4.74-2.08,7.09l-1,3.2h6.33ZM360,102h2.67V92.63h8V90.37h-8v-7.1h9.46V81H360Zm61.57,26.15-3-1.29c-1.65-.7-3.49-1.46-3.49-3.48s1.57-3.07,3.93-3.07a6.71,6.71,0,0,1,4.77,2l1.42-1.72A8.67,8.67,0,0,0,419,118c-3.82,0-6.63,2.37-6.63,5.58s2.3,4.58,4.26,5.42l3,1.33c2,.87,3.51,1.55,3.51,3.7s-1.63,3.42-4.39,3.42a8.24,8.24,0,0,1-5.81-2.61l-1.6,1.84a10.09,10.09,0,0,0,7.36,3.12c4.42,0,7.17-2.65,7.17-6C425.93,130.69,424,129.24,421.59,128.19Zm-23.34,1.31h8v-2.27h-8v-6.59h9.44v-2.26H395.57v21H408v-2.27h-9.76ZM322.93,87c-.64,1.55-1.37,3-2.1,4.58h-.13c-.72-1.57-1.36-3-2-4.58L316,81H313.1l6.32,12.88V102h2.68V93.89L328.42,81h-2.78Zm61.92,50.49c-4,0-6.51-3.31-6.51-8.6s2.64-8.49,6.62-8.49a5.73,5.73,0,0,1,4.27,2l1.47-1.74a7.85,7.85,0,0,0-5.79-2.6c-5.34,0-9.33,4.14-9.33,10.92s3.92,10.88,9.16,10.88a8.1,8.1,0,0,0,6.45-3l-1.46-1.68A6.3,6.3,0,0,1,384.85,137.44ZM333.09,54.08c0,6.74-3.71,11-9,11s-9-4.24-9-11,3.71-10.82,9-10.82S333.09,47.36,333.09,54.08Zm-2.77,0c0-5.24-2.47-8.47-6.22-8.47s-6.23,3.23-6.23,8.47,2.47,8.63,6.23,8.63S330.32,59.32,330.32,54.08Zm-90.67,85.33h2.68v-21h-2.68Zm79-2c-4,0-6.51-3.31-6.51-8.6s2.64-8.49,6.61-8.49a5.7,5.7,0,0,1,4.27,2l1.47-1.74a7.81,7.81,0,0,0-5.78-2.6c-5.34,0-9.34,4.14-9.34,10.92s3.93,10.88,9.17,10.88a8.1,8.1,0,0,0,6.45-3l-1.47-1.68A6.28,6.28,0,0,1,318.62,137.44Zm-67.39-7.94h8v-2.27h-8v-6.59h9.45v-2.26H248.56v21H261v-2.27h-9.77Zm-2.08-29.72h-9.77V92.13h8V89.86h-8V83.27h9.45V81H236.71v21h12.44Zm-9-44h-3.8v8.89h-2.67v-21h6.58c4.29,0,7.36,1.54,7.36,5.92a5.69,5.69,0,0,1-4.74,5.91l5.37,9.2h-3Zm-.27-2.17c3.27,0,5.07-1.32,5.07-4s-1.8-3.75-5.07-3.75H236.4v7.8ZM268.64,102h-3l-5.07-8.89h-3.8V102h-2.67V81h6.58c4.29,0,7.36,1.54,7.36,5.92a5.7,5.7,0,0,1-4.74,5.91Zm-3.3-15.11c0-2.77-1.8-3.75-5.07-3.75h-3.53V91h3.53C263.54,91,265.34,89.65,265.34,86.93ZM292.58,81h-2.67v21h2.67Zm9.07,47.18-3-1.29c-1.65-.7-3.48-1.46-3.48-3.48s1.56-3.07,3.92-3.07a6.71,6.71,0,0,1,4.77,2l1.42-1.72a8.67,8.67,0,0,0-6.19-2.61c-3.82,0-6.62,2.37-6.62,5.58s2.3,4.58,4.26,5.42l3,1.33c2,.87,3.51,1.55,3.51,3.7s-1.64,3.42-4.4,3.42a8.2,8.2,0,0,1-5.8-2.61l-1.61,1.84a10.09,10.09,0,0,0,7.36,3.12c4.42,0,7.17-2.65,7.17-6C306,130.69,304.08,129.24,301.65,128.19ZM281,90.83l-3-1.3c-1.65-.7-3.48-1.46-3.48-3.48S276.07,83,278.43,83a6.71,6.71,0,0,1,4.77,2l1.42-1.72a8.67,8.67,0,0,0-6.19-2.61c-3.82,0-6.62,2.37-6.62,5.59s2.3,4.58,4.26,5.41l3,1.33c2,.87,3.51,1.56,3.51,3.7s-1.64,3.42-4.4,3.42a8.19,8.19,0,0,1-5.8-2.6l-1.6,1.83a10.05,10.05,0,0,0,7.35,3.13c4.43,0,7.17-2.66,7.17-6C285.32,93.32,283.42,91.87,281,90.83Zm0-47.19,7.11,21h-2.83l-2-6.4h-7.67l-2,6.4h-2.73l7.12-21Zm.61,9.29c-.76-2.35-1.43-4.66-2.11-7.09h-.12c-.65,2.44-1.33,4.74-2.08,7.09l-1,3.2h6.33Zm-.48,75.89c0,6.68-3.47,10.59-9.81,10.59h-5.38v-21h5.26C277.64,118.38,281.11,122.14,281.11,128.82Zm-2.76,0c0-5.32-2.46-8.25-7.37-8.25h-2.39v16.64H271C275.89,137.21,278.35,134.13,278.35,128.82Z">
  </path>
</svg>