<svg width="25" height="25" class="h-6 w-6 pointer-events-none" viewBox="0 0 800 800" fill="none"
  xmlns="http://www.w3.org/2000/svg">
  <path
    d="M182.037 781.592V266.647H10.8984V781.591H182.037V781.592ZM96.4859 196.366C156.147 196.366 193.311 156.791 193.311 107.377C192.183 56.8641 156.147 18.4062 97.6047 18.4062C39.0531 18.4078 0.78125 56.8656 0.78125 107.378C0.78125 156.792 37.925 196.367 95.3594 196.367L96.4859 196.366ZM276.756 781.592C276.756 781.592 279.002 314.962 276.756 266.648H447.922V341.327H446.786C469.292 306.186 509.839 254.556 602.161 254.556C714.794 254.556 799.217 328.155 799.217 486.327V781.594H628.08V506.112C628.08 436.892 603.317 389.658 541.366 389.658C494.094 389.658 465.922 421.502 453.55 452.283C449.023 463.239 447.922 478.628 447.922 494.019V781.592H276.756Z"
    fill="white"></path>
</svg>