

<svg width="4" height="4" class="w-12 h-12" xmlns="http://www.w3.org/2000/svg" viewBox="0 0 24 24">
    <g>
        <path fill="currentColor"
            d="M2.023,21.5c-0.281,0-0.538-0.07-0.766-0.201c-0.716-0.414-0.962-1.333-0.549-2.049l2.388-4.006
		c0.067-0.112,0.147-0.213,0.241-0.304c-0.217-0.265-0.337-0.595-0.337-0.939v-10c0-0.827,0.673-1.5,1.5-1.5h15
		c0.827,0,1.5,0.673,1.5,1.5v10c0,0.344-0.12,0.674-0.337,0.939c0.094,0.091,0.174,0.192,0.24,0.304l2.385,4
		c0.139,0.241,0.209,0.51,0.204,0.782c-0.007,0.4-0.169,0.774-0.457,1.053c-0.281,0.272-0.651,0.421-1.042,0.421
		C21.993,21.5,2.024,21.5,2.023,21.5z M4.407,15.5c-0.184,0-0.357,0.098-0.451,0.256l-2.385,4c-0.135,0.234-0.052,0.54,0.186,0.677
		c0.075,0.043,0.164,0.066,0.266,0.067h19.953c0.1-0.002,0.249-0.028,0.365-0.14c0.096-0.093,0.15-0.217,0.152-0.351
		c0.002-0.091-0.021-0.181-0.067-0.26l-2.382-3.994c-0.094-0.158-0.267-0.256-0.451-0.256c-0.01,0-0.024-0.001-0.038-0.003
		c-0.02,0.002-0.038,0.004-0.056,0.004h-15c-0.018,0-0.036-0.001-0.053-0.003C4.44,15.499,4.407,15.5,4.407,15.5z M4.501,3.501
		c-0.276,0-0.5,0.224-0.5,0.5v10c0,0.276,0.224,0.5,0.5,0.5h15c0.276,0,0.5-0.224,0.5-0.5v-10c0-0.276-0.224-0.5-0.5-0.5H4.501z"></path>
        <path fill="currentColor"
            d="M9.501,19.501c-0.276,0-0.5-0.224-0.5-0.5s0.224-0.5,0.5-0.5h5c0.276,0,0.5,0.224,0.5,0.5s-0.224,0.5-0.5,0.5H9.501z">
        </path>
        <path fill="currentColor" d="M16.501,13.001c-0.276,0-0.5-0.224-0.5-0.5V8.239l-3.943,1.578c-0.179,0.071-0.366,0.108-0.557,0.108
		c-0.191,0-0.378-0.036-0.556-0.107L6.605,8.081C6.448,8.018,6.322,7.892,6.258,7.736C6.13,7.414,6.285,7.05,6.604,6.921l4.34-1.735
		c0.178-0.071,0.366-0.107,0.557-0.107c0.191,0,0.378,0.036,0.557,0.107l4.629,1.85c0.057,0.023,0.109,0.057,0.158,0.104
		c0.005,0.005,0.019,0.019,0.023,0.025c0.034,0.038,0.061,0.077,0.081,0.12c0.002,0.005,0.014,0.029,0.016,0.035
		c0.025,0.064,0.036,0.122,0.036,0.181v5.001C17.001,12.777,16.776,13.001,16.501,13.001z M11.316,8.889
		c0.059,0.024,0.122,0.036,0.185,0.036c0.064,0,0.126-0.012,0.186-0.036l3.468-1.388l-3.468-1.386
		c-0.06-0.024-0.122-0.036-0.186-0.036c-0.063,0-0.126,0.012-0.185,0.036L7.847,7.501L11.316,8.889z"></path>
        <path fill="currentColor" d="M11.844,13.015c-0.114,0-0.229-0.004-0.343-0.013c-0.113,0.009-0.227,0.013-0.34,0.013c-1.109,0-2.172-0.406-2.994-1.142
		c-0.106-0.095-0.166-0.23-0.166-0.372V10c0-0.276,0.224-0.5,0.5-0.5s0.5,0.224,0.5,0.5v1.267c0.612,0.483,1.375,0.747,2.159,0.747
		c0.099,0,0.198-0.004,0.297-0.013C11.465,12.001,11.494,12,11.501,12c0.014,0,0.028,0,0.043,0.002
		c0.099,0.009,0.198,0.013,0.297,0.013c0.786,0,1.548-0.265,2.161-0.747V10c0-0.276,0.224-0.5,0.5-0.5s0.5,0.224,0.5,0.5v1.5
		c0,0.141-0.06,0.277-0.166,0.372C14.013,12.609,12.951,13.015,11.844,13.015z"></path>
    </g>
</svg>