<svg width="20" height="20" class="h-10 w-10 shrink-0 mr-4 md:mr-8 hidden md:block" viewBox="0 0 29 29" fill="none"
    xmlns="http://www.w3.org/2000/svg">
    <circle cx="14.5" cy="14.5" r="13" stroke="white" stroke-width="2"></circle>
    <path d="M7.08777 19.5V10.372H12.7998V12.108H9.14577V13.942H12.2538V15.664H9.14577V17.764H12.9398V19.5H7.08777Z"
        fill="white"></path>
    <path
        d="M14.7577 19.5V10.372H16.8717L19.2517 14.908L20.1477 16.924H20.2037C20.157 16.4387 20.101 15.8973 20.0357 15.3C19.9797 14.7027 19.9517 14.1333 19.9517 13.592V10.372H21.9117V19.5H19.7977L17.4177 14.95L16.5217 12.962H16.4657C16.5124 13.466 16.5637 14.0073 16.6197 14.586C16.685 15.1647 16.7177 15.7247 16.7177 16.266V19.5H14.7577Z"
        fill="white"></path>
</svg>